<svg width="475" height="208" viewBox="0 0 475 208" fill="none" xmlns="http://www.w3.org/2000/svg">
<path d="M56.488 22.736C51.304 20.336 46.024 18.704 40.36 18.704C35.944 18.704 30.28 19.856 30.28 24.656C30.28 37.04 61.864 24.176 61.864 50.48C61.864 68.24 45.64 75.536 27.88 75.536C18.472 75.536 8.968 74.096 3.784 72.656L3.976 57.296C9.352 60.464 17.224 63.152 23.848 63.152C29.224 63.152 35.368 62.096 35.368 56.624C35.368 45.776 2.632 56.336 2.632 29.36C2.632 12.944 17.224 5.36 35.176 5.36C43.528 5.36 52.168 6.704 56.488 7.664V22.736ZM89.467 75.536C78.619 75.536 74.107 69.488 74.107 57.008C74.107 44.912 79.867 39.248 95.995 39.248C103.195 39.248 107.419 37.52 107.419 34.256C107.419 31.568 105.115 30.128 99.643 30.128C92.923 30.128 83.995 31.856 76.987 34.736V21.584C84.091 19.952 93.211 18.32 107.899 18.32C125.659 18.32 134.683 21.584 134.683 33.392V74.096H108.667L107.995 66.896H107.035C103.195 71.6 96.955 75.536 89.467 75.536ZM108.091 53.072V45.392H106.843C102.331 45.968 98.683 46.736 98.683 54.128C98.683 57.584 99.451 60.56 102.331 60.56C105.211 60.56 107.899 57.872 108.091 53.072ZM187.167 74L177.567 48.848H176.415V74.096H150.399V4.496H176.415V37.904H177.567L191.295 19.952H216.255L200.607 40.4V41.36L215.679 74H187.167ZM222.481 45.392C222.481 28.688 235.249 18.224 254.545 18.224C273.361 18.224 285.649 28.208 285.649 46.64C285.649 48.368 285.649 50.096 285.361 51.632H250.225C250.225 59.696 257.809 63.632 266.545 63.632C272.305 63.632 275.665 62.384 281.137 60.272V71.984C274.801 73.904 266.161 75.536 257.137 75.536C234.961 75.536 222.481 62.864 222.481 45.392ZM260.593 41.072C260.401 31.568 259.441 28.496 255.217 28.496C250.993 28.496 249.649 31.472 249.457 41.072H260.593Z" fill="#375DC0"/>
<path d="M0.28 105.344H43.192L53.56 152.288H56.44L70.12 105.344H103.096L115.48 152.288H118.072L129.736 105.344H154.648L125.704 205.856H89.704L76.456 161.072L61.48 205.856H25.48L0.28 105.344ZM288.415 105.344H328.879V185.552H364.447V206H288.415V105.344ZM393.192 105.344H472.104V125.936H433.656V145.808H470.088V165.968H433.656V206H393.192V105.344Z" fill="#375DC0"/>
<path fill-rule="evenodd" clip-rule="evenodd" d="M191.054 187.326C215.91 187.615 235.825 167.971 235.536 143.448C235.322 125.336 224.146 109.629 208.302 102.538C208.991 102.52 209.683 102.515 210.379 102.523C239.86 102.866 264.036 126.722 264.379 155.806C264.722 184.89 241.102 208.19 211.622 207.847C190.481 207.601 172.069 195.264 163.216 177.579C170.927 183.573 180.595 187.204 191.054 187.326Z" fill="#375DC0"/>
</svg>
